<svg width="1179" height="168" viewBox="0 0 1179 168" fill="none" xmlns="http://www.w3.org/2000/svg">
<path d="M166.54 84.0005C166.54 87.1548 166.365 90.2663 166.022 93.3277C162.314 126.6 139.001 153.949 107.897 163.566C100.113 165.974 91.8435 167.27 83.27 167.27C37.2804 167.27 0 129.99 0 84.0005C0 38.0108 37.2804 0.730469 83.27 0.730469C129.26 0.730469 166.54 38.0108 166.54 84.0005Z" fill="#F66D52"/>
<path d="M166.033 93.3211C162.324 126.593 139.012 153.943 107.908 163.559L48.6115 109.593L59.4426 86.1622L37.1016 66.8326L46.1859 60.5597L129.749 57.0195L166.033 93.3211Z" fill="url(#paint0_linear_8525_39572)"/>
<path d="M122.627 66.6793L129.753 57.0126C129.928 56.7733 129.761 56.4375 129.464 56.4375H44.2293C44.115 56.4375 44.0079 56.4911 43.94 56.584L36.8133 66.2506C36.6382 66.4899 36.8061 66.8257 37.1026 66.8257H70.8214C71.1179 66.8257 71.2858 67.1615 71.1108 67.4009L62.7159 78.7929L55.0605 89.1811H55.0391L46.2191 101.148H46.2405C44.8438 103.045 44.9617 105.66 46.5263 107.421L47.5516 108.575C49.227 110.461 51.6275 111.536 54.1496 111.536H93.3626C93.4769 111.536 93.584 111.483 93.6519 111.39L100.779 101.723C100.954 101.484 100.786 101.148 100.489 101.148H61.8086C61.5121 101.148 61.3442 100.812 61.5192 100.573L69.8069 89.3276C69.8748 89.2347 69.9819 89.1811 70.0963 89.1811H103.279C103.394 89.1811 103.501 89.1275 103.569 89.0346L110.695 79.368C110.87 79.1287 110.702 78.7929 110.406 78.7929H78.3054C78.0089 78.7929 77.841 78.4571 78.016 78.2177L86.3037 66.9722C86.3716 66.8793 86.4788 66.8257 86.5931 66.8257H122.337C122.452 66.8257 122.559 66.7721 122.627 66.6793Z" fill="#FEFEFE"/>
<path d="M43.7969 104.457L43.8404 104.394L43.7969 104.34V104.457Z" fill="#FEFEFE"/>
<g opacity="0.25">
<path d="M83.2836 158.907C73.174 158.907 63.3645 156.928 54.1338 153.02C45.2173 149.248 37.2083 143.846 30.328 136.97C23.4514 130.093 18.0501 122.084 14.2778 113.164C10.3732 103.93 8.39062 94.1237 8.39062 84.0141C8.39062 73.9045 10.3697 64.095 14.2778 54.8642C18.0501 45.9478 23.4514 37.9387 30.328 31.0585C37.2047 24.1819 45.2138 18.7806 54.1338 15.0082C63.3681 11.1037 73.174 9.12109 83.2836 9.12109C93.3932 9.12109 103.203 11.1001 112.433 15.0082C121.35 18.7806 129.359 24.1819 136.239 31.0585C143.116 37.9352 148.517 45.9442 152.289 54.8642C156.194 64.0986 158.177 73.9045 158.177 84.0141C158.177 94.1237 156.198 103.933 152.289 113.164C148.517 122.08 143.116 130.089 136.239 136.97C129.363 143.846 121.353 149.248 112.433 153.02C103.199 156.928 93.3932 158.907 83.2836 158.907ZM83.2836 9.46403C42.1773 9.46403 8.73 42.9078 8.73 84.0177C8.73 125.124 42.1737 158.571 83.2836 158.571C124.393 158.571 157.837 125.128 157.837 84.0177C157.834 42.9078 124.39 9.46403 83.2836 9.46403Z" fill="white"/>
</g>
<path d="M219.591 120V113.058L255.879 54.05H220.117V46.3716H266.187V53.3138L229.794 112.322H266.608V120H219.591ZM295.933 121.262C290.954 121.262 286.536 120.14 282.68 117.896C278.823 115.582 275.773 112.392 273.529 108.325C271.355 104.187 270.268 99.3841 270.268 93.9145C270.268 88.3749 271.355 83.5715 273.529 79.5044C275.702 75.4373 278.718 72.2818 282.574 70.0379C286.501 67.7239 291.024 66.5669 296.143 66.5669C301.262 66.5669 305.645 67.7239 309.291 70.0379C312.937 72.2818 315.742 75.262 317.706 78.9785C319.669 82.6248 320.651 86.6218 320.651 90.9694C320.651 91.6706 320.651 92.442 320.651 93.2834C320.651 94.0548 320.616 94.9313 320.546 95.913H276.894V89.0761H311.921C311.71 84.0974 310.097 80.2407 307.082 77.5059C304.137 74.7712 300.42 73.4038 295.933 73.4038C292.917 73.4038 290.113 74.0699 287.518 75.4023C284.923 76.7346 282.82 78.7331 281.207 81.3977C279.664 84.0624 278.893 87.4282 278.893 91.4953V94.4404C278.893 98.788 279.699 102.399 281.312 105.274C282.925 108.149 285.029 110.323 287.623 111.796C290.288 113.198 293.058 113.899 295.933 113.899C299.579 113.899 302.629 113.058 305.084 111.375C307.538 109.692 309.326 107.378 310.448 104.433H319.178C318.267 107.658 316.759 110.533 314.655 113.058C312.552 115.582 309.922 117.581 306.767 119.053C303.681 120.526 300.07 121.262 295.933 121.262ZM327.005 120V67.8291H334.789L335.63 76.4541H336.051C337.804 73.1583 340.118 70.7041 342.993 69.0913C345.938 67.4083 349.129 66.5669 352.565 66.5669C355.3 66.5669 357.754 66.9876 359.928 67.8291C362.172 68.6004 364.1 69.7574 365.713 71.3001C367.326 72.8428 368.623 74.8062 369.605 77.1904H370.025C371.919 73.6843 374.338 71.0547 377.283 69.3016C380.228 67.4784 383.839 66.5669 388.117 66.5669C391.974 66.5669 395.374 67.4083 398.32 69.0913C401.265 70.7041 403.579 73.2285 405.262 76.6645C406.945 80.0303 407.786 84.3078 407.786 89.4968V120H399.056V90.4435C399.056 85.0441 397.969 80.977 395.795 78.2422C393.621 75.5074 390.326 74.1401 385.908 74.1401C383.173 74.1401 380.754 74.701 378.65 75.823C376.547 76.9449 374.864 78.7331 373.602 81.1873C372.409 83.5715 371.813 86.6569 371.813 90.4435V120H362.978V90.4435C362.978 85.0441 361.891 80.977 359.717 78.2422C357.544 75.5074 354.423 74.1401 350.356 74.1401C347.902 74.1401 345.553 74.8763 343.309 76.3489C341.135 77.8215 339.347 79.9602 337.944 82.7651C336.542 85.4999 335.841 88.9008 335.841 92.9679V120H327.005ZM440.054 121.262C435.145 121.262 430.727 120.14 426.8 117.896C422.874 115.652 419.753 112.497 417.439 108.43C415.195 104.293 414.073 99.4542 414.073 93.9145C414.073 88.3749 415.23 83.5715 417.544 79.5044C419.858 75.3672 422.979 72.1766 426.906 69.9327C430.903 67.6888 435.355 66.5669 440.264 66.5669C445.172 66.5669 449.59 67.6888 453.517 69.9327C457.444 72.1766 460.529 75.3672 462.773 79.5044C465.087 83.5715 466.244 88.3749 466.244 93.9145C466.244 99.4542 465.087 104.293 462.773 108.43C460.459 112.497 457.304 115.652 453.307 117.896C449.38 120.14 444.962 121.262 440.054 121.262ZM440.054 114.425C443.069 114.425 445.874 113.689 448.468 112.216C451.063 110.674 453.166 108.395 454.779 105.38C456.392 102.364 457.198 98.5426 457.198 93.9145C457.198 89.2865 456.392 85.4648 454.779 82.4495C453.237 79.3642 451.168 77.0852 448.573 75.6126C445.979 74.1401 443.209 73.4038 440.264 73.4038C437.319 73.4038 434.514 74.1401 431.849 75.6126C429.255 77.0852 427.151 79.3642 425.538 82.4495C423.925 85.4648 423.119 89.2865 423.119 93.9145C423.119 98.5426 423.925 102.364 425.538 105.38C427.151 108.395 429.22 110.674 431.744 112.216C434.339 113.689 437.108 114.425 440.054 114.425ZM493.266 121.262C489.128 121.262 485.412 120.561 482.116 119.159C478.82 117.686 476.156 115.652 474.122 113.058C472.159 110.393 470.932 107.273 470.441 103.697H479.487C479.907 105.45 480.609 107.168 481.59 108.851C482.642 110.463 484.115 111.796 486.008 112.848C487.971 113.899 490.426 114.425 493.371 114.425C495.895 114.425 497.964 114.075 499.577 113.373C501.189 112.602 502.382 111.62 503.153 110.428C503.994 109.166 504.415 107.799 504.415 106.326C504.415 104.503 503.889 103.03 502.837 101.908C501.786 100.787 500.243 99.8399 498.209 99.0685C496.246 98.227 493.897 97.4206 491.162 96.6493C489.058 96.0182 486.92 95.352 484.746 94.6508C482.572 93.8795 480.574 92.9679 478.75 91.916C476.997 90.8642 475.56 89.4968 474.438 87.8139C473.386 86.131 472.86 84.0273 472.86 81.5029C472.86 78.698 473.631 76.1736 475.174 73.9297C476.717 71.6858 478.891 69.8977 481.695 68.5653C484.571 67.233 487.936 66.5669 491.793 66.5669C497.333 66.5669 501.856 67.9342 505.362 70.669C508.938 73.4038 511.007 77.3657 511.568 82.5547H502.837C502.557 79.6096 501.435 77.3657 499.471 75.823C497.578 74.2102 494.984 73.4038 491.688 73.4038C488.462 73.4038 485.973 74.105 484.22 75.5074C482.537 76.9099 481.695 78.6629 481.695 80.7666C481.695 82.1691 482.116 83.3261 482.958 84.2377C483.799 85.1492 485.131 85.9557 486.955 86.6569C488.848 87.288 491.232 88.0593 494.107 88.9709C497.333 89.9526 500.383 91.0395 503.258 92.2316C506.203 93.4237 508.587 95.0014 510.411 96.9648C512.304 98.8581 513.251 101.453 513.251 104.748C513.321 107.974 512.514 110.849 510.831 113.373C509.218 115.828 506.904 117.756 503.889 119.159C500.944 120.561 497.403 121.262 493.266 121.262ZM544.004 121.262C539.096 121.262 534.678 120.14 530.751 117.896C526.824 115.652 523.704 112.497 521.39 108.43C519.146 104.293 518.024 99.4542 518.024 93.9145C518.024 88.3749 519.181 83.5715 521.495 79.5044C523.809 75.3672 526.93 72.1766 530.856 69.9327C534.853 67.6888 539.306 66.5669 544.215 66.5669C549.123 66.5669 553.541 67.6888 557.468 69.9327C561.395 72.1766 564.48 75.3672 566.724 79.5044C569.038 83.5715 570.195 88.3749 570.195 93.9145C570.195 99.4542 569.038 104.293 566.724 108.43C564.41 112.497 561.254 115.652 557.257 117.896C553.331 120.14 548.913 121.262 544.004 121.262ZM544.004 114.425C547.02 114.425 549.824 113.689 552.419 112.216C555.014 110.674 557.117 108.395 558.73 105.38C560.343 102.364 561.149 98.5426 561.149 93.9145C561.149 89.2865 560.343 85.4648 558.73 82.4495C557.187 79.3642 555.119 77.0852 552.524 75.6126C549.93 74.1401 547.16 73.4038 544.215 73.4038C541.27 73.4038 538.465 74.1401 535.8 75.6126C533.205 77.0852 531.102 79.3642 529.489 82.4495C527.876 85.4648 527.07 89.2865 527.07 93.9145C527.07 98.5426 527.876 102.364 529.489 105.38C531.102 108.395 533.17 110.674 535.695 112.216C538.289 113.689 541.059 114.425 544.004 114.425ZM616.38 120V53.6293H594.397V46.3716H647.199V53.6293H625.216V120H616.38ZM672.805 121.262C667.827 121.262 663.409 120.14 659.552 117.896C655.696 115.582 652.645 112.392 650.401 108.325C648.228 104.187 647.141 99.3841 647.141 93.9145C647.141 88.3749 648.228 83.5715 650.401 79.5044C652.575 75.4373 655.59 72.2818 659.447 70.0379C663.374 67.7239 667.897 66.5669 673.016 66.5669C678.135 66.5669 682.517 67.7239 686.164 70.0379C689.81 72.2818 692.615 75.262 694.578 78.9785C696.542 82.6248 697.524 86.6218 697.524 90.9694C697.524 91.6706 697.524 92.442 697.524 93.2834C697.524 94.0548 697.488 94.9313 697.418 95.913H653.767V89.0761H688.793C688.583 84.0974 686.97 80.2407 683.955 77.5059C681.01 74.7712 677.293 73.4038 672.805 73.4038C669.79 73.4038 666.985 74.0699 664.391 75.4023C661.796 76.7346 659.693 78.7331 658.08 81.3977C656.537 84.0624 655.766 87.4282 655.766 91.4953V94.4404C655.766 98.788 656.572 102.399 658.185 105.274C659.798 108.149 661.901 110.323 664.496 111.796C667.161 113.198 669.93 113.899 672.805 113.899C676.452 113.899 679.502 113.058 681.956 111.375C684.411 109.692 686.199 107.378 687.321 104.433H696.051C695.139 107.658 693.632 110.533 691.528 113.058C689.424 115.582 686.795 117.581 683.639 119.053C680.554 120.526 676.943 121.262 672.805 121.262ZM728.491 121.262C723.021 121.262 718.323 120.14 714.396 117.896C710.54 115.582 707.559 112.392 705.456 108.325C703.352 104.187 702.3 99.3841 702.3 93.9145C702.3 88.445 703.422 83.6767 705.666 79.6096C707.98 75.4724 711.101 72.2818 715.028 70.0379C719.024 67.7239 723.512 66.5669 728.491 66.5669C734.732 66.5669 739.956 68.1797 744.163 71.4053C748.371 74.6309 751.035 78.9434 752.157 84.3428H743.111C742.41 80.7666 740.692 78.0669 737.957 76.2437C735.223 74.3504 732.032 73.4038 728.386 73.4038C725.441 73.4038 722.671 74.1751 720.076 75.7178C717.482 77.1904 715.378 79.4343 713.765 82.4495C712.153 85.4648 711.346 89.2865 711.346 93.9145C711.346 97.2103 711.767 100.12 712.608 102.645C713.52 105.099 714.747 107.168 716.29 108.851C717.832 110.533 719.621 111.796 721.654 112.637C723.758 113.479 726.002 113.899 728.386 113.899C730.84 113.899 733.084 113.514 735.118 112.742C737.151 111.901 738.869 110.709 740.272 109.166C741.674 107.553 742.621 105.66 743.111 103.486H752.157C751.035 108.745 748.371 113.023 744.163 116.319C739.956 119.614 734.732 121.262 728.491 121.262ZM759.564 120V46.3716H768.399V76.5593H768.82C770.923 73.2635 773.483 70.7742 776.498 69.0913C779.584 67.4083 782.879 66.5669 786.385 66.5669C790.382 66.5669 793.888 67.4083 796.904 69.0913C799.919 70.7041 802.233 73.2285 803.846 76.6645C805.529 80.0303 806.37 84.3078 806.37 89.4968V120H797.64V90.4435C797.64 85.0441 796.518 80.977 794.274 78.2422C792.1 75.5074 788.84 74.1401 784.492 74.1401C781.477 74.1401 778.742 74.8763 776.288 76.3489C773.834 77.8215 771.905 79.9602 770.503 82.7651C769.1 85.4999 768.399 88.9008 768.399 92.9679V120H759.564ZM814.3 120V67.8291H822.084L822.925 76.0334H823.346C825.169 73.1583 827.553 70.8794 830.498 69.1964C833.443 67.4434 836.985 66.5669 841.122 66.5669C845.119 66.5669 848.625 67.4083 851.64 69.0913C854.655 70.7041 856.969 73.2285 858.582 76.6645C860.265 80.0303 861.107 84.3078 861.107 89.4968V120H852.271V90.4435C852.271 85.0441 851.114 80.977 848.8 78.2422C846.486 75.5074 843.155 74.1401 838.808 74.1401C835.793 74.1401 833.093 74.8763 830.709 76.3489C828.395 77.8215 826.536 79.9602 825.134 82.7651C823.802 85.4999 823.135 88.9008 823.135 92.9679V120H814.3ZM893.349 121.262C888.44 121.262 884.022 120.14 880.096 117.896C876.169 115.652 873.048 112.497 870.734 108.43C868.49 104.293 867.368 99.4542 867.368 93.9145C867.368 88.3749 868.525 83.5715 870.839 79.5044C873.153 75.3672 876.274 72.1766 880.201 69.9327C884.198 67.6888 888.65 66.5669 893.559 66.5669C898.468 66.5669 902.885 67.6888 906.812 69.9327C910.739 72.1766 913.824 75.3672 916.068 79.5044C918.382 83.5715 919.539 88.3749 919.539 93.9145C919.539 99.4542 918.382 104.293 916.068 108.43C913.754 112.497 910.599 115.652 906.602 117.896C902.675 120.14 898.257 121.262 893.349 121.262ZM893.349 114.425C896.364 114.425 899.169 113.689 901.763 112.216C904.358 110.674 906.462 108.395 908.074 105.38C909.687 102.364 910.494 98.5426 910.494 93.9145C910.494 89.2865 909.687 85.4648 908.074 82.4495C906.532 79.3642 904.463 77.0852 901.868 75.6126C899.274 74.1401 896.504 73.4038 893.559 73.4038C890.614 73.4038 887.809 74.1401 885.144 75.6126C882.55 77.0852 880.446 79.3642 878.833 82.4495C877.221 85.4648 876.414 89.2865 876.414 93.9145C876.414 98.5426 877.221 102.364 878.833 105.38C880.446 108.395 882.515 110.674 885.039 112.216C887.634 113.689 890.404 114.425 893.349 114.425ZM926.891 120V46.3716H935.727V120H926.891ZM969.052 121.262C964.143 121.262 959.726 120.14 955.799 117.896C951.872 115.652 948.752 112.497 946.437 108.43C944.194 104.293 943.072 99.4542 943.072 93.9145C943.072 88.3749 944.229 83.5715 946.543 79.5044C948.857 75.3672 951.977 72.1766 955.904 69.9327C959.901 67.6888 964.354 66.5669 969.262 66.5669C974.171 66.5669 978.589 67.6888 982.515 69.9327C986.442 72.1766 989.528 75.3672 991.771 79.5044C994.086 83.5715 995.243 88.3749 995.243 93.9145C995.243 99.4542 994.086 104.293 991.771 108.43C989.457 112.497 986.302 115.652 982.305 117.896C978.378 120.14 973.96 121.262 969.052 121.262ZM969.052 114.425C972.067 114.425 974.872 113.689 977.467 112.216C980.061 110.674 982.165 108.395 983.778 105.38C985.39 102.364 986.197 98.5426 986.197 93.9145C986.197 89.2865 985.39 85.4648 983.778 82.4495C982.235 79.3642 980.166 77.0852 977.572 75.6126C974.977 74.1401 972.207 73.4038 969.262 73.4038C966.317 73.4038 963.512 74.1401 960.848 75.6126C958.253 77.0852 956.149 79.3642 954.537 82.4495C952.924 85.4648 952.117 89.2865 952.117 93.9145C952.117 98.5426 952.924 102.364 954.537 105.38C956.149 108.395 958.218 110.674 960.742 112.216C963.337 113.689 966.107 114.425 969.052 114.425ZM1025.84 142.299C1021.14 142.299 1016.97 141.668 1013.32 140.406C1009.68 139.213 1006.84 137.425 1004.8 135.041C1002.77 132.727 1001.75 129.887 1001.75 126.521C1001.75 124.979 1002.07 123.401 1002.7 121.788C1003.4 120.175 1004.56 118.598 1006.17 117.055C1007.85 115.442 1010.2 113.934 1013.22 112.532L1019.11 116.108C1015.53 117.651 1013.18 119.264 1012.06 120.947C1010.94 122.63 1010.38 124.488 1010.38 126.521C1010.38 128.345 1010.94 129.922 1012.06 131.255C1013.25 132.657 1015.01 133.709 1017.32 134.41C1019.63 135.111 1022.47 135.462 1025.84 135.462C1029.28 135.462 1032.05 135.041 1034.15 134.2C1036.25 133.358 1037.8 132.201 1038.78 130.729C1039.76 129.256 1040.25 127.573 1040.25 125.68C1040.25 123.436 1039.34 121.648 1037.52 120.316C1035.76 119.053 1032.4 118.282 1027.42 118.002C1023.28 117.721 1019.81 117.335 1017 116.844C1014.27 116.354 1011.99 115.793 1010.17 115.162C1008.34 114.46 1006.8 113.689 1005.54 112.848C1004.35 112.006 1003.26 111.13 1002.28 110.218V107.799L1012.48 97.5959L1017.53 100.12L1009.64 109.902L1010.38 106.326C1011.01 106.747 1011.68 107.168 1012.38 107.588C1013.15 108.009 1014.2 108.43 1015.53 108.851C1016.86 109.201 1018.62 109.552 1020.79 109.902C1023.04 110.253 1025.91 110.569 1029.42 110.849C1034.11 111.2 1037.9 111.971 1040.78 113.163C1043.65 114.285 1045.72 115.863 1046.98 117.896C1048.31 119.93 1048.98 122.419 1048.98 125.364C1048.98 128.029 1048.14 130.659 1046.46 133.253C1044.84 135.848 1042.32 137.986 1038.88 139.669C1035.52 141.422 1031.17 142.299 1025.84 142.299ZM1025.74 103.591C1021.32 103.591 1017.57 102.785 1014.48 101.172C1011.4 99.4892 1009.05 97.2453 1007.43 94.4404C1005.82 91.6356 1005.01 88.5151 1005.01 85.0791C1005.01 81.6431 1005.82 78.5578 1007.43 75.823C1009.05 73.0181 1011.4 70.7742 1014.48 69.0913C1017.57 67.4083 1021.32 66.5669 1025.74 66.5669C1030.15 66.5669 1033.9 67.4083 1036.99 69.0913C1040.08 70.7742 1042.42 73.0181 1044.04 75.823C1045.65 78.5578 1046.46 81.6431 1046.46 85.0791C1046.46 88.5151 1045.65 91.6356 1044.04 94.4404C1042.42 97.2453 1040.08 99.4892 1036.99 101.172C1033.9 102.785 1030.15 103.591 1025.74 103.591ZM1025.74 96.8597C1029.45 96.8597 1032.4 95.8779 1034.57 93.9145C1036.81 91.881 1037.94 88.9358 1037.94 85.0791C1037.94 81.1523 1036.81 78.2071 1034.57 76.2437C1032.4 74.2803 1029.45 73.2986 1025.74 73.2986C1022.02 73.2986 1019.04 74.2803 1016.79 76.2437C1014.55 78.2071 1013.43 81.1523 1013.43 85.0791C1013.43 88.9358 1014.55 91.881 1016.79 93.9145C1019.04 95.8779 1022.02 96.8597 1025.74 96.8597ZM1034.15 74.2452L1031.52 67.8291H1053.19V72.6675L1034.15 74.2452ZM1061.89 120V67.8291H1070.73V120H1061.89ZM1066.31 57.4159C1064.56 57.4159 1063.08 56.8199 1061.89 55.6278C1060.7 54.4357 1060.1 52.9631 1060.1 51.2101C1060.1 49.5271 1060.7 48.0896 1061.89 46.8976C1063.08 45.7055 1064.56 45.1094 1066.31 45.1094C1067.99 45.1094 1069.43 45.7055 1070.62 46.8976C1071.81 48.0896 1072.41 49.5622 1072.41 51.3153C1072.41 52.9982 1071.81 54.4357 1070.62 55.6278C1069.43 56.8199 1067.99 57.4159 1066.31 57.4159ZM1104.94 121.262C1099.96 121.262 1095.54 120.14 1091.69 117.896C1087.83 115.582 1084.78 112.392 1082.54 108.325C1080.36 104.187 1079.28 99.3841 1079.28 93.9145C1079.28 88.3749 1080.36 83.5715 1082.54 79.5044C1084.71 75.4373 1087.73 72.2818 1091.58 70.0379C1095.51 67.7239 1100.03 66.5669 1105.15 66.5669C1110.27 66.5669 1114.65 67.7239 1118.3 70.0379C1121.95 72.2818 1124.75 75.262 1126.71 78.9785C1128.68 82.6248 1129.66 86.6218 1129.66 90.9694C1129.66 91.6706 1129.66 92.442 1129.66 93.2834C1129.66 94.0548 1129.62 94.9313 1129.55 95.913H1085.9V89.0761H1120.93C1120.72 84.0974 1119.11 80.2407 1116.09 77.5059C1113.14 74.7712 1109.43 73.4038 1104.94 73.4038C1101.93 73.4038 1099.12 74.0699 1096.53 75.4023C1093.93 76.7346 1091.83 78.7331 1090.21 81.3977C1088.67 84.0624 1087.9 87.4282 1087.9 91.4953V94.4404C1087.9 98.788 1088.71 102.399 1090.32 105.274C1091.93 108.149 1094.04 110.323 1096.63 111.796C1099.3 113.198 1102.07 113.899 1104.94 113.899C1108.59 113.899 1111.64 113.058 1114.09 111.375C1116.55 109.692 1118.33 107.378 1119.46 104.433H1128.19C1127.27 107.658 1125.77 110.533 1123.66 113.058C1121.56 115.582 1118.93 117.581 1115.77 119.053C1112.69 120.526 1109.08 121.262 1104.94 121.262ZM1156.21 121.262C1152.07 121.262 1148.35 120.561 1145.06 119.159C1141.76 117.686 1139.1 115.652 1137.07 113.058C1135.1 110.393 1133.87 107.273 1133.38 103.697H1142.43C1142.85 105.45 1143.55 107.168 1144.53 108.851C1145.58 110.463 1147.06 111.796 1148.95 112.848C1150.91 113.899 1153.37 114.425 1156.31 114.425C1158.84 114.425 1160.91 114.075 1162.52 113.373C1164.13 112.602 1165.32 111.62 1166.1 110.428C1166.94 109.166 1167.36 107.799 1167.36 106.326C1167.36 104.503 1166.83 103.03 1165.78 101.908C1164.73 100.787 1163.19 99.8399 1161.15 99.0685C1159.19 98.227 1156.84 97.4206 1154.1 96.6493C1152 96.0182 1149.86 95.352 1147.69 94.6508C1145.51 93.8795 1143.52 92.9679 1141.69 91.916C1139.94 90.8642 1138.5 89.4968 1137.38 87.8139C1136.33 86.131 1135.8 84.0273 1135.8 81.5029C1135.8 78.698 1136.57 76.1736 1138.12 73.9297C1139.66 71.6858 1141.83 69.8977 1144.64 68.5653C1147.51 67.233 1150.88 66.5669 1154.74 66.5669C1160.28 66.5669 1164.8 67.9342 1168.3 70.669C1171.88 73.4038 1173.95 77.3657 1174.51 82.5547H1165.78C1165.5 79.6096 1164.38 77.3657 1162.41 75.823C1160.52 74.2102 1157.93 73.4038 1154.63 73.4038C1151.41 73.4038 1148.92 74.105 1147.16 75.5074C1145.48 76.9099 1144.64 78.6629 1144.64 80.7666C1144.64 82.1691 1145.06 83.3261 1145.9 84.2377C1146.74 85.1492 1148.07 85.9557 1149.9 86.6569C1151.79 87.288 1154.17 88.0593 1157.05 88.9709C1160.28 89.9526 1163.33 91.0395 1166.2 92.2316C1169.15 93.4237 1171.53 95.0014 1173.35 96.9648C1175.25 98.8581 1176.19 101.453 1176.19 104.748C1176.26 107.974 1175.46 110.849 1173.77 113.373C1172.16 115.828 1169.85 117.756 1166.83 119.159C1163.89 120.561 1160.35 121.262 1156.21 121.262Z" fill="white"/>
<defs>
<linearGradient id="paint0_linear_8525_39572" x1="137.444" y1="137.696" x2="61.532" y2="46.3752" gradientUnits="userSpaceOnUse">
<stop stop-color="#181818" stop-opacity="0"/>
<stop offset="1" stop-color="#181818" stop-opacity="0.25"/>
</linearGradient>
</defs>
</svg>
